<?xml version="1.0" encoding="utf-8"?>
<svg viewBox="48.9 336.9 100 100" xmlns="http://www.w3.org/2000/svg">
  <g transform="matrix(0.18227902054786682, 0, 0, 0.18227902054786682, -23.221155166626033, 290.50347900390625)" style="">
    <path  d="M 671.409 447.098 C 642.179 447.098 618.399 470.878 618.399 500.108 C 618.399 529.338 642.179 553.118 671.409 553.118 C 700.629 553.118 724.409 529.338 724.409 500.108 C 724.409 470.878 700.639 447.098 671.409 447.098 Z" style=""/>
    <path d="M 839.323 385.072 L 818.283 385.072 L 818.283 381.222 C 818.283 374.022 812.443 368.182 805.243 368.182 C 798.043 368.182 792.203 374.022 792.203 381.222 L 792.203 385.072 L 729.633 385.072 L 724.193 361.582 C 722.963 356.272 718.233 352.512 712.783 352.512 L 627.143 352.512 C 621.693 352.512 616.963 356.272 615.733 361.582 L 610.293 385.072 L 500.603 385.072 C 486.443 385.072 474.963 396.552 474.963 410.712 L 474.963 603.192 C 474.963 617.352 486.443 628.832 500.603 628.832 L 534.323 628.832 L 534.323 696.812 C 534.323 703.672 542.143 707.602 547.643 703.502 L 647.953 628.832 L 839.333 628.832 C 853.493 628.832 864.973 617.352 864.973 603.192 L 864.973 410.712 C 864.963 396.552 853.483 385.072 839.323 385.072 Z M 669.963 564.082 C 634.083 564.082 604.883 534.882 604.883 499.002 C 604.883 463.122 634.083 433.922 669.963 433.922 C 705.843 433.922 735.033 463.112 735.033 499.002 C 735.033 534.882 705.843 564.082 669.963 564.082 Z M 837.033 420.422 C 837.033 425.012 833.313 428.732 828.723 428.732 L 781.763 428.732 C 777.173 428.732 773.453 425.012 773.453 420.422 C 773.453 415.832 777.173 412.112 781.763 412.112 L 828.723 412.112 C 833.313 412.112 837.033 415.832 837.033 420.422 Z" style=""/>
  </g>
</svg>